<?xml version="1.0" standalone="no"?>
<!DOCTYPE svg PUBLIC "-//W3C//DTD SVG 20010904//EN"
 "http://www.w3.org/TR/2001/REC-SVG-20010904/DTD/svg10.dtd">
<svg version="1.0" xmlns="http://www.w3.org/2000/svg"
 width="474.000000pt" height="474.000000pt" viewBox="0 0 474.000000 474.000000"
 preserveAspectRatio="xMidYMid meet">

<g transform="translate(0.000000,474.000000) scale(0.100000,-0.100000)"
fill="#000000" stroke="none">
<path d="M2261 4624 c-129 -35 -262 -145 -319 -265 -158 -333 83 -720 447
-719 93 1 147 12 226 50 268 128 361 479 194 729 -68 102 -171 175 -294 207
-65 18 -185 17 -254 -2z"/>
<path d="M505 3464 c-38 -9 -92 -28 -120 -43 -122 -67 -121 -212 3 -275 61
-31 130 -48 302 -76 165 -27 203 -41 198 -72 -5 -37 -51 -53 -154 -53 -106 1
-157 22 -162 68 l-3 27 -146 0 -146 0 6 -40 c17 -128 122 -178 392 -187 194
-6 316 11 413 58 120 59 147 166 64 249 -50 50 -122 75 -324 110 -188 34 -223
45 -223 75 0 30 42 45 128 45 87 0 146 -19 154 -50 5 -19 13 -20 145 -20 l141
0 -7 31 c-24 123 -143 169 -431 168 -101 0 -186 -6 -230 -15z"/>
<path d="M1348 3463 c-17 -4 -18 -28 -18 -329 l0 -324 400 0 400 0 0 70 0 70
-250 0 -250 0 0 65 0 65 225 0 225 0 0 70 0 70 -225 0 -225 0 0 50 0 50 240 0
241 0 -3 73 -3 72 -370 1 c-203 1 -378 0 -387 -3z"/>
<path d="M3093 3463 l-53 -4 -2 -210 -3 -211 -193 211 -193 211 -190 0 -189 0
2 -322 3 -323 142 -3 143 -3 2 213 3 212 185 -211 185 -212 193 -1 192 0 0
330 0 330 -87 -2 c-49 -1 -112 -3 -140 -5z"/>
<path d="M3593 3137 l-223 -322 147 -3 c81 -1 149 1 151 5 1 4 16 29 32 56
l30 47 229 0 230 0 28 -52 28 -53 168 -3 167 -2 -216 325 -217 325 -166 -1
-166 0 -222 -322z m442 52 c36 -61 65 -113 65 -115 0 -2 -61 -4 -135 -4 -74 0
-135 3 -135 6 0 7 133 223 137 224 1 0 32 -50 68 -111z"/>
<path d="M50 2450 l0 -180 681 0 681 0 28 -28 c32 -32 48 -92 33 -125 -6 -12
-138 -245 -293 -517 -156 -272 -291 -508 -300 -525 -9 -16 -63 -110 -120 -209
l-103 -179 129 -123 c71 -68 132 -123 136 -123 3 -1 18 20 33 47 15 26 58 99
95 162 37 63 153 264 258 445 104 182 346 599 536 928 190 329 346 600 346
603 0 2 -481 4 -1070 4 l-1070 0 0 -180z"/>
<path d="M2590 2619 c0 -4 43 -82 97 -175 53 -93 131 -230 173 -304 42 -74
119 -209 171 -300 52 -91 252 -441 444 -777 193 -337 353 -613 358 -613 4 0
68 54 141 121 l134 120 -100 172 c-624 1072 -728 1257 -728 1292 0 43 23 90
50 105 14 8 230 11 695 10 l675 0 0 175 0 175 -1055 2 c-580 2 -1055 0 -1055
-3z"/>
<path d="M2249 2048 c-125 -217 -177 -306 -429 -738 -78 -135 -166 -285 -195
-335 -61 -104 -405 -696 -412 -707 -4 -8 304 -165 310 -158 3 4 255 431 668
1129 53 91 106 175 119 188 31 33 82 40 122 16 36 -21 48 -40 533 -868 142
-242 264 -446 270 -454 11 -11 39 0 169 68 86 45 156 85 156 88 0 3 -56 98
-124 211 -68 114 -213 358 -323 542 -618 1037 -734 1230 -737 1230 -2 0 -59
-96 -127 -212z"/>
</g>
</svg>
